name C:\Users\antoi\Documents\MyRepositories\upper-imu-dc\Results\main_tracking\Case_77\kinematics.mot
datacolumns 10
datarows 18
range 2.12000000 2.29000000
endheader 
time	clav_prot	clav_elev	scapula_abduction	scapula_elevation	scapula_upward_rot	scapula_winging	plane_elv	shoulder_elv	axial_rot	
          2.12000000	        -20.78354809	          0.38672846	         10.24822964	         -6.18585115	         42.57379115	         -2.74174891	         59.27926259	         58.87355170	        -19.04809641	
          2.13000000	        -20.85159531	          0.47836607	         10.31562090	         -6.15398774	         42.83568351	         -2.80627723	         59.26211100	         59.26130869	        -18.81237883	
          2.14000000	        -20.92203537	          0.57095000	         10.38275202	         -6.12179230	         43.10247103	         -2.87128474	         59.24261235	         59.65113459	        -18.57703403	
          2.15000000	        -20.99493878	          0.66492287	         10.44964740	         -6.08896480	         43.37444943	         -2.93694446	         59.22067474	         60.04238562	        -18.34235891	
          2.16000000	        -21.07039034	          0.76073264	         10.51627816	         -6.05519686	         43.65187973	         -3.00342094	         59.19628562	         60.43447039	        -18.10899881	
          2.17000000	        -21.14849870	          0.85880794	         10.58254165	         -6.02018890	         43.93497718	         -3.07085994	         59.16950306	         60.82685638	        -17.87786967	
          2.18000000	        -21.22940219	          0.95953080	         10.64824333	         -5.98366834	         44.22389425	         -3.13937722	         59.14044613	         61.21906407	        -17.65003265	
          2.19000000	        -21.31327155	          1.06321178	         10.71308473	         -5.94540623	         44.51870526	         -3.20904916	         59.10928437	         61.61065418	        -17.42654387	
          2.20000000	        -21.40030943	          1.17007213	         10.77665829	         -5.90522922	         44.81939448	         -3.27990698	         59.07622232	         62.00120939	        -17.20830612	
          2.21000000	        -21.49074298	          1.28023422	         10.83846388	         -5.86302684	         45.12585860	         -3.35193642	         59.04148610	         62.39032038	        -16.99594858	
          2.22000000	        -21.58481163	          1.39372214	         10.89793637	         -5.81875174	         45.43791486	         -3.42508205	         59.00529974	         62.77757157	        -16.78975400	
          2.23000000	        -21.68275051	          1.51047066	         10.95448297	         -5.77241431	         45.75531426	         -3.49925500	         58.96785136	         63.16252975	        -16.58964343	
          2.24000000	        -21.78476820	          1.63033642	         11.00753391	         -5.72407565	         46.07775901	         -3.57434178	         58.92926296	         63.54474366	        -16.39521677	
          2.25000000	        -21.89102437	          1.75310731	         11.05659132	         -5.67384133	         46.40491687	         -3.65021153	         58.88956361	         63.92375398	        -16.20583404	
          2.26000000	        -22.00161332	          1.87850789	         11.10126133	         -5.62185738	         46.73642628	         -3.72671978	         58.84866630	         64.29911032	        -16.02071430	
          2.27000000	        -22.11655277	          2.00619993	         11.14127368	         -5.56830934	         47.07189604	         -3.80370917	         58.80636305	         64.67039337	        -15.83903131	
          2.28000000	        -22.23578265	          2.13578249	         11.17648182	         -5.51342214	         47.41090252	         -3.88100911	         58.76233154	         65.03723695	        -15.65999142	
          2.29000000	        -22.35917319	          2.26679380	         11.20684729	         -5.45745918	         47.75298837	         -3.95843563	         58.71615309	         65.39934682	        -15.48288981	
